# xmcd
#
# Track frame offsets: 
#        150
#        12887
#        25913
#        37727
#        49704
#        58724
#        70994
#        83250
#        101984
#        111283
#        123776
#        140069
#        153833
#
# Disc length: 2317 seconds
#
# Revision: 0
# Processed by: cddbd v1.5.1PL0 Copyright (c) Steve Scherf et al.
# Submitted via: ExactAudioCopy v0.95a5
#
DISCID=a0090b0d
DTITLE=LeRoy Mack - LeRoy Mack and Friends
DYEAR=1996
DGENRE=Bluegrass
TTITLE0=If You're Ever Gonna Love Me
TTITLE1=Carter's Blues
TTITLE2=Won't You Call Me Darling
TTITLE3=Wabash Cannonball
TTITLE4=Rainbow Shining Somewhere
TTITLE5=I've Got a Lot to Thank My Daddy For
TTITLE6=Memphis Special
TTITLE7=Pick'n in Holland
TTITLE8=I Might Take You Back
TTITLE9=Lonesome Road Blues
TTITLE10=The Pasadena Kid
TTITLE11=Banjo Pick'n Fever
TTITLE12=Ashokan Farewell
EXTD=
EXTT0=
EXTT1=
EXTT2=
EXTT3=
EXTT4=
EXTT5=
EXTT6=
EXTT7=
EXTT8=
EXTT9=
EXTT10=
EXTT11=
EXTT12=
PLAYORDER=
